<?xml version="1.0" encoding="utf-8"?>
<svg version="1.2" baseProfile="tiny" id="Layer_1" xmlns="http://www.w3.org/2000/svg" xmlns:xlink="http://www.w3.org/1999/xlink"
	 x="0px" y="0px" viewBox="0 0 30 30" xml:space="preserve">
<g id="XMLID_70_">
	<rect id="XMLID_65_" x="0" fill="#F26625" width="30" height="30"/>
	<path id="XMLID_64_" fill="#FFFFFF" d="M14,17L8.8,7.3h2.4l3,6.1c0,0.1,0.1,0.2,0.2,0.3c0.1,0.1,0.1,0.2,0.2,0.4
		c0,0,0.1,0.1,0.1,0.1c0,0,0,0.1,0,0.1c0.1,0.2,0.1,0.3,0.2,0.5c0.1,0.1,0.1,0.3,0.2,0.4c0.1-0.3,0.3-0.5,0.4-0.9
		c0.1-0.3,0.3-0.6,0.5-0.9L19,7.3h2.2L16,17.1v6.2h-2V17z"/>
</g>
</svg>
