<svg xmlns="http://www.w3.org/2000/svg" xmlns:xlink="http://www.w3.org/1999/xlink" width="1190" height="629.59"><rect width="1190" height="629.59" rx="0" ry="0" class="a"/><svg height="629.59" viewBox="0 0 119 62.959" width="1190" xmlns="http://www.w3.org/2000/svg" xmlns:xlink="http://www.w3.org/1999/xlink"><style>@keyframes f{0%{transform:translateX(0)}.1%{transform:translateX(-119px)}25.1%{transform:translateX(-238px)}27.2%{transform:translateX(-357px)}37.5%{transform:translateX(-833px)}42.3%{transform:translateX(-952px)}49.3%{transform:translateX(-1071px)}56.2%{transform:translateX(-1190px)}63.1%{transform:translateX(-1309px)}70%{transform:translateX(-1428px)}76.9%{transform:translateX(-1547px)}82.2%{transform:translateX(-1666px)}82.4%{transform:translateX(-1904px)}82.5%{transform:translateX(-2023px)}to{transform:translateX(-2142px)}}.a{fill:#282d35}.c{fill:#b9c0cb;white-space:pre}</style><g font-family="Monaco,Consolas,Menlo,'Bitstream Vera Sans Mono','Powerline Symbols',monospace" font-size="1.67"><defs><symbol id="1"><text y="1.67" class="c">docker</text><text x="7.014" y="1.67" class="c">run</text><text x="11.022" y="1.67" class="c">-it</text><text x="15.03" y="1.67" class="c">--rm</text><text x="20.04" y="1.67" class="c">--gpus=all</text><text x="31.062" y="1.67" class="c">--privileged=true</text><text x="49.098" y="1.67" class="c">--ipc=host</text><text x="60.12" y="1.67" class="c">-v</text><text x="63.126" y="1.67" class="c">/home/pbridger/dev/pytorch-video-pipeline:/app</text><text x="110.22" y="1.67" class="c">--entrypo</text></symbol><symbol id="2"><text y="1.67" class="c">int=gst-launch-1.0</text><text x="19.038" y="1.67" class="c">pytorch-video-pipeline:latest</text><text x="49.098" y="1.67" class="c">filesrc</text><text x="57.114" y="1.67" class="c">location=media/in.mp4</text><text x="79.158" y="1.67" class="c">num-buffers=200</text><text x="95.19" y="1.67" class="c">!</text><text x="97.194" y="1.67" class="c">decodebin</text><text x="107.214" y="1.67" class="c">!</text><text x="109.218" y="1.67" class="c">progressre</text></symbol><symbol id="3"><text y="1.67" class="c">port</text><text x="5.01" y="1.67" class="c">update-freq=1</text><text x="19.038" y="1.67" class="c">!</text><text x="21.042" y="1.67" class="c">fakesink</text><text x="30.06" y="1.67" class="c">sync=true</text></symbol><symbol id="4"><text y="1.67" class="c">2020-09-17</text><text x="11.022" y="1.67" class="c">10:20:11.504081:</text><text x="28.056" y="1.67" class="c">I</text><text x="30.06" y="1.67" class="c">tensorflow/stream_executor/platform/default/dso_loader.cc:44]</text><text x="92.184" y="1.67" class="c">Successfully</text><text x="105.21" y="1.67" class="c">opened</text><text x="112.224" y="1.67" class="c">dynamic</text></symbol><symbol id="5"><text x="1.002" y="1.67" class="c">library</text><text x="9.018" y="1.67" class="c">libcudart.so.10.2</text></symbol><symbol id="6"><text y="1.67" class="c">Setting</text><text x="8.016" y="1.67" class="c">pipeline</text><text x="17.034" y="1.67" class="c">to</text><text x="20.04" y="1.67" class="c">PAUSED</text><text x="27.054" y="1.67" class="c">...</text></symbol><symbol id="7"><text y="1.67" class="c">Pipeline</text><text x="9.018" y="1.67" class="c">is</text><text x="12.024" y="1.67" class="c">PREROLLING</text><text x="23.046" y="1.67" class="c">...</text></symbol><symbol id="8"><text y="1.67" class="c">progressreport0</text><text x="16.032" y="1.67" class="c">(00:00:02):</text><text x="28.056" y="1.67" class="c">0</text><text x="30.06" y="1.67" class="c">/</text><text x="32.064" y="1.67" class="c">51</text><text x="35.07" y="1.67" class="c">seconds</text><text x="43.086" y="1.67" class="c">(</text><text x="45.09" y="1.67" class="c">0.0</text><text x="49.098" y="1.67" class="c">%)</text></symbol><symbol id="9"><text y="1.67" class="c">Pipeline</text><text x="9.018" y="1.67" class="c">is</text><text x="12.024" y="1.67" class="c">PREROLLED</text><text x="22.044" y="1.67" class="c">...</text></symbol><symbol id="10"><text y="1.67" class="c">Setting</text><text x="8.016" y="1.67" class="c">pipeline</text><text x="17.034" y="1.67" class="c">to</text><text x="20.04" y="1.67" class="c">PLAYING</text><text x="28.056" y="1.67" class="c">...</text></symbol><symbol id="11"><text y="1.67" class="c">New</text><text x="4.008" y="1.67" class="c">clock:</text><text x="11.022" y="1.67" class="c">GstSystemClock</text></symbol><symbol id="12"><text y="1.67" class="c">progressreport0</text><text x="16.032" y="1.67" class="c">(00:00:03):</text><text x="28.056" y="1.67" class="c">0</text><text x="30.06" y="1.67" class="c">/</text><text x="32.064" y="1.67" class="c">51</text><text x="35.07" y="1.67" class="c">seconds</text><text x="43.086" y="1.67" class="c">(</text><text x="45.09" y="1.67" class="c">0.0</text><text x="49.098" y="1.67" class="c">%)</text></symbol><symbol id="13"><text y="1.67" class="c">progressreport0</text><text x="16.032" y="1.67" class="c">(00:00:04):</text><text x="28.056" y="1.67" class="c">1</text><text x="30.06" y="1.67" class="c">/</text><text x="32.064" y="1.67" class="c">51</text><text x="35.07" y="1.67" class="c">seconds</text><text x="43.086" y="1.67" class="c">(</text><text x="45.09" y="1.67" class="c">2.0</text><text x="49.098" y="1.67" class="c">%)</text></symbol><symbol id="14"><text y="1.67" class="c">progressreport0</text><text x="16.032" y="1.67" class="c">(00:00:05):</text><text x="28.056" y="1.67" class="c">2</text><text x="30.06" y="1.67" class="c">/</text><text x="32.064" y="1.67" class="c">51</text><text x="35.07" y="1.67" class="c">seconds</text><text x="43.086" y="1.67" class="c">(</text><text x="45.09" y="1.67" class="c">3.9</text><text x="49.098" y="1.67" class="c">%)</text></symbol><symbol id="15"><text y="1.67" class="c">progressreport0</text><text x="16.032" y="1.67" class="c">(00:00:06):</text><text x="28.056" y="1.67" class="c">3</text><text x="30.06" y="1.67" class="c">/</text><text x="32.064" y="1.67" class="c">51</text><text x="35.07" y="1.67" class="c">seconds</text><text x="43.086" y="1.67" class="c">(</text><text x="45.09" y="1.67" class="c">5.9</text><text x="49.098" y="1.67" class="c">%)</text></symbol><symbol id="16"><text y="1.67" class="c">progressreport0</text><text x="16.032" y="1.67" class="c">(00:00:07):</text><text x="28.056" y="1.67" class="c">4</text><text x="30.06" y="1.67" class="c">/</text><text x="32.064" y="1.67" class="c">51</text><text x="35.07" y="1.67" class="c">seconds</text><text x="43.086" y="1.67" class="c">(</text><text x="45.09" y="1.67" class="c">7.8</text><text x="49.098" y="1.67" class="c">%)</text></symbol><symbol id="17"><text y="1.67" class="c">progressreport0</text><text x="16.032" y="1.67" class="c">(00:00:08):</text><text x="28.056" y="1.67" class="c">5</text><text x="30.06" y="1.67" class="c">/</text><text x="32.064" y="1.67" class="c">51</text><text x="35.07" y="1.67" class="c">seconds</text><text x="43.086" y="1.67" class="c">(</text><text x="45.09" y="1.67" class="c">9.8</text><text x="49.098" y="1.67" class="c">%)</text></symbol><symbol id="18"><text y="1.67" class="c">progressreport0</text><text x="16.032" y="1.67" class="c">(00:00:08):</text><text x="28.056" y="1.67" class="c">6</text><text x="30.06" y="1.67" class="c">/</text><text x="32.064" y="1.67" class="c">51</text><text x="35.07" y="1.67" class="c">seconds</text><text x="43.086" y="1.67" class="c">(11.8</text><text x="49.098" y="1.67" class="c">%)</text></symbol><symbol id="19"><text y="1.67" class="c">Got</text><text x="4.008" y="1.67" class="c">EOS</text><text x="8.016" y="1.67" class="c">from</text><text x="13.026" y="1.67" class="c">element</text><text x="21.042" y="1.67" class="c">&quot;pipeline0&quot;.</text></symbol><symbol id="20"><text y="1.67" class="c">Execution</text><text x="10.02" y="1.67" class="c">ended</text><text x="16.032" y="1.67" class="c">after</text><text x="22.044" y="1.67" class="c">0:00:06.499205738</text></symbol><symbol id="21"><text y="1.67" class="c">Setting</text><text x="8.016" y="1.67" class="c">pipeline</text><text x="17.034" y="1.67" class="c">to</text><text x="20.04" y="1.67" class="c">READY</text><text x="26.052" y="1.67" class="c">...</text></symbol><symbol id="22"><text y="1.67" class="c">Setting</text><text x="8.016" y="1.67" class="c">pipeline</text><text x="17.034" y="1.67" class="c">to</text><text x="20.04" y="1.67" class="c">NULL</text><text x="25.05" y="1.67" class="c">...</text></symbol><symbol id="23"><text y="1.67" class="c">Freeing</text><text x="8.016" y="1.67" class="c">pipeline</text><text x="17.034" y="1.67" class="c">...</text></symbol><symbol id="a"><path fill="transparent" d="M0 0h119v29H0z"/></symbol><symbol id="b"><path fill="#6f7683" d="M0 0h1.102v2.171H0z"/></symbol></defs><path class="a" d="M0 0h119v62.959H0z"/><g style="animation-duration:14.472192s;animation-iteration-count:infinite;animation-name:f;animation-timing-function:steps(1,end)"><svg width="2261"><svg><use xlink:href="#a"/><use xlink:href="#b" x="-.004"/></svg><svg x="119"><use xlink:href="#a"/><use xlink:href="#b" x="-.004" y="6.488"/><use xlink:href="#1"/><use xlink:href="#2" y="2.171"/><use xlink:href="#3" y="4.342"/></svg><svg x="238"><use xlink:href="#a"/><use xlink:href="#b" x="-.004" y="10.83"/><use xlink:href="#1"/><use xlink:href="#2" y="2.171"/><use xlink:href="#3" y="4.342"/><use xlink:href="#4" y="6.513"/><use xlink:href="#5" y="8.684"/></svg><svg x="357"><use xlink:href="#a"/><use xlink:href="#b" x="-.004" y="15.172"/><use xlink:href="#1"/><use xlink:href="#2" y="2.171"/><use xlink:href="#3" y="4.342"/><use xlink:href="#4" y="6.513"/><use xlink:href="#5" y="8.684"/><use xlink:href="#6" y="10.855"/><use xlink:href="#7" y="13.026"/></svg><svg x="476"><use xlink:href="#a"/><use xlink:href="#b" x="-.004" y="17.343"/><use xlink:href="#1"/><use xlink:href="#2" y="2.171"/><use xlink:href="#3" y="4.342"/><use xlink:href="#4" y="6.513"/><use xlink:href="#5" y="8.684"/><use xlink:href="#6" y="10.855"/><use xlink:href="#7" y="13.026"/><use xlink:href="#8" y="15.197"/></svg><svg x="595"><use xlink:href="#a"/><use xlink:href="#b" x="-.004" y="19.514"/><use xlink:href="#1"/><use xlink:href="#2" y="2.171"/><use xlink:href="#3" y="4.342"/><use xlink:href="#4" y="6.513"/><use xlink:href="#5" y="8.684"/><use xlink:href="#6" y="10.855"/><use xlink:href="#7" y="13.026"/><use xlink:href="#8" y="15.197"/><use xlink:href="#9" y="17.368"/></svg><svg x="714"><use xlink:href="#a"/><use xlink:href="#b" x="-.004" y="21.685"/><use xlink:href="#1"/><use xlink:href="#2" y="2.171"/><use xlink:href="#3" y="4.342"/><use xlink:href="#4" y="6.513"/><use xlink:href="#5" y="8.684"/><use xlink:href="#6" y="10.855"/><use xlink:href="#7" y="13.026"/><use xlink:href="#8" y="15.197"/><use xlink:href="#9" y="17.368"/><use xlink:href="#10" y="19.539"/></svg><svg x="833"><use xlink:href="#a"/><use xlink:href="#b" x="-.004" y="23.856"/><use xlink:href="#1"/><use xlink:href="#2" y="2.171"/><use xlink:href="#3" y="4.342"/><use xlink:href="#4" y="6.513"/><use xlink:href="#5" y="8.684"/><use xlink:href="#6" y="10.855"/><use xlink:href="#7" y="13.026"/><use xlink:href="#8" y="15.197"/><use xlink:href="#9" y="17.368"/><use xlink:href="#10" y="19.539"/><use xlink:href="#11" y="21.71"/></svg><svg x="952"><use xlink:href="#a"/><use xlink:href="#b" x="-.004" y="26.027"/><use xlink:href="#1"/><use xlink:href="#2" y="2.171"/><use xlink:href="#3" y="4.342"/><use xlink:href="#4" y="6.513"/><use xlink:href="#5" y="8.684"/><use xlink:href="#6" y="10.855"/><use xlink:href="#7" y="13.026"/><use xlink:href="#8" y="15.197"/><use xlink:href="#9" y="17.368"/><use xlink:href="#10" y="19.539"/><use xlink:href="#11" y="21.71"/><use xlink:href="#12" y="23.881"/></svg><svg x="1071"><use xlink:href="#a"/><use xlink:href="#b" x="-.004" y="28.198"/><use xlink:href="#1"/><use xlink:href="#2" y="2.171"/><use xlink:href="#3" y="4.342"/><use xlink:href="#4" y="6.513"/><use xlink:href="#5" y="8.684"/><use xlink:href="#6" y="10.855"/><use xlink:href="#7" y="13.026"/><use xlink:href="#8" y="15.197"/><use xlink:href="#9" y="17.368"/><use xlink:href="#10" y="19.539"/><use xlink:href="#11" y="21.71"/><use xlink:href="#12" y="23.881"/><use xlink:href="#13" y="26.052"/></svg><svg x="1190"><use xlink:href="#a"/><use xlink:href="#b" x="-.004" y="30.369"/><use xlink:href="#1"/><use xlink:href="#2" y="2.171"/><use xlink:href="#3" y="4.342"/><use xlink:href="#4" y="6.513"/><use xlink:href="#5" y="8.684"/><use xlink:href="#6" y="10.855"/><use xlink:href="#7" y="13.026"/><use xlink:href="#8" y="15.197"/><use xlink:href="#9" y="17.368"/><use xlink:href="#10" y="19.539"/><use xlink:href="#11" y="21.71"/><use xlink:href="#12" y="23.881"/><use xlink:href="#13" y="26.052"/><use xlink:href="#14" y="28.223"/></svg><svg x="1309"><use xlink:href="#a"/><use xlink:href="#b" x="-.004" y="32.54"/><use xlink:href="#1"/><use xlink:href="#2" y="2.171"/><use xlink:href="#3" y="4.342"/><use xlink:href="#4" y="6.513"/><use xlink:href="#5" y="8.684"/><use xlink:href="#6" y="10.855"/><use xlink:href="#7" y="13.026"/><use xlink:href="#8" y="15.197"/><use xlink:href="#9" y="17.368"/><use xlink:href="#10" y="19.539"/><use xlink:href="#11" y="21.71"/><use xlink:href="#12" y="23.881"/><use xlink:href="#13" y="26.052"/><use xlink:href="#14" y="28.223"/><use xlink:href="#15" y="30.394"/></svg><svg x="1428"><use xlink:href="#a"/><use xlink:href="#b" x="-.004" y="34.711"/><use xlink:href="#1"/><use xlink:href="#2" y="2.171"/><use xlink:href="#3" y="4.342"/><use xlink:href="#4" y="6.513"/><use xlink:href="#5" y="8.684"/><use xlink:href="#6" y="10.855"/><use xlink:href="#7" y="13.026"/><use xlink:href="#8" y="15.197"/><use xlink:href="#9" y="17.368"/><use xlink:href="#10" y="19.539"/><use xlink:href="#11" y="21.71"/><use xlink:href="#12" y="23.881"/><use xlink:href="#13" y="26.052"/><use xlink:href="#14" y="28.223"/><use xlink:href="#15" y="30.394"/><use xlink:href="#16" y="32.565"/></svg><svg x="1547"><use xlink:href="#a"/><use xlink:href="#b" x="-.004" y="36.882"/><use xlink:href="#1"/><use xlink:href="#2" y="2.171"/><use xlink:href="#3" y="4.342"/><use xlink:href="#4" y="6.513"/><use xlink:href="#5" y="8.684"/><use xlink:href="#6" y="10.855"/><use xlink:href="#7" y="13.026"/><use xlink:href="#8" y="15.197"/><use xlink:href="#9" y="17.368"/><use xlink:href="#10" y="19.539"/><use xlink:href="#11" y="21.71"/><use xlink:href="#12" y="23.881"/><use xlink:href="#13" y="26.052"/><use xlink:href="#14" y="28.223"/><use xlink:href="#15" y="30.394"/><use xlink:href="#16" y="32.565"/><use xlink:href="#17" y="34.736"/></svg><svg x="1666"><use xlink:href="#a"/><use xlink:href="#b" x="-.004" y="39.053"/><use xlink:href="#1"/><use xlink:href="#2" y="2.171"/><use xlink:href="#3" y="4.342"/><use xlink:href="#4" y="6.513"/><use xlink:href="#5" y="8.684"/><use xlink:href="#6" y="10.855"/><use xlink:href="#7" y="13.026"/><use xlink:href="#8" y="15.197"/><use xlink:href="#9" y="17.368"/><use xlink:href="#10" y="19.539"/><use xlink:href="#11" y="21.71"/><use xlink:href="#12" y="23.881"/><use xlink:href="#13" y="26.052"/><use xlink:href="#14" y="28.223"/><use xlink:href="#15" y="30.394"/><use xlink:href="#16" y="32.565"/><use xlink:href="#17" y="34.736"/><use xlink:href="#18" y="36.907"/></svg><svg x="1785"><use xlink:href="#a"/><use xlink:href="#b" x="-.004" y="45.566"/><use xlink:href="#1"/><use xlink:href="#2" y="2.171"/><use xlink:href="#3" y="4.342"/><use xlink:href="#4" y="6.513"/><use xlink:href="#5" y="8.684"/><use xlink:href="#6" y="10.855"/><use xlink:href="#7" y="13.026"/><use xlink:href="#8" y="15.197"/><use xlink:href="#9" y="17.368"/><use xlink:href="#10" y="19.539"/><use xlink:href="#11" y="21.71"/><use xlink:href="#12" y="23.881"/><use xlink:href="#13" y="26.052"/><use xlink:href="#14" y="28.223"/><use xlink:href="#15" y="30.394"/><use xlink:href="#16" y="32.565"/><use xlink:href="#17" y="34.736"/><use xlink:href="#18" y="36.907"/><use xlink:href="#19" y="39.078"/><use xlink:href="#20" y="41.249"/><use xlink:href="#6" y="43.42"/></svg><svg x="1904"><use xlink:href="#a"/><use xlink:href="#b" x="-.004" y="47.737"/><use xlink:href="#1"/><use xlink:href="#2" y="2.171"/><use xlink:href="#3" y="4.342"/><use xlink:href="#4" y="6.513"/><use xlink:href="#5" y="8.684"/><use xlink:href="#6" y="10.855"/><use xlink:href="#7" y="13.026"/><use xlink:href="#8" y="15.197"/><use xlink:href="#9" y="17.368"/><use xlink:href="#10" y="19.539"/><use xlink:href="#11" y="21.71"/><use xlink:href="#12" y="23.881"/><use xlink:href="#13" y="26.052"/><use xlink:href="#14" y="28.223"/><use xlink:href="#15" y="30.394"/><use xlink:href="#16" y="32.565"/><use xlink:href="#17" y="34.736"/><use xlink:href="#18" y="36.907"/><use xlink:href="#19" y="39.078"/><use xlink:href="#20" y="41.249"/><use xlink:href="#6" y="43.42"/><use xlink:href="#21" y="45.591"/></svg><svg x="2023"><use xlink:href="#a"/><use xlink:href="#b" x="-.004" y="52.079"/><use xlink:href="#1"/><use xlink:href="#2" y="2.171"/><use xlink:href="#3" y="4.342"/><use xlink:href="#4" y="6.513"/><use xlink:href="#5" y="8.684"/><use xlink:href="#6" y="10.855"/><use xlink:href="#7" y="13.026"/><use xlink:href="#8" y="15.197"/><use xlink:href="#9" y="17.368"/><use xlink:href="#10" y="19.539"/><use xlink:href="#11" y="21.71"/><use xlink:href="#12" y="23.881"/><use xlink:href="#13" y="26.052"/><use xlink:href="#14" y="28.223"/><use xlink:href="#15" y="30.394"/><use xlink:href="#16" y="32.565"/><use xlink:href="#17" y="34.736"/><use xlink:href="#18" y="36.907"/><use xlink:href="#19" y="39.078"/><use xlink:href="#20" y="41.249"/><use xlink:href="#6" y="43.42"/><use xlink:href="#21" y="45.591"/><use xlink:href="#22" y="47.762"/><use xlink:href="#23" y="49.933"/></svg><svg x="2142"><use xlink:href="#a"/><use xlink:href="#b" x="-.004" y="54.25"/><use xlink:href="#1"/><use xlink:href="#2" y="2.171"/><use xlink:href="#3" y="4.342"/><use xlink:href="#4" y="6.513"/><use xlink:href="#5" y="8.684"/><use xlink:href="#6" y="10.855"/><use xlink:href="#7" y="13.026"/><use xlink:href="#8" y="15.197"/><use xlink:href="#9" y="17.368"/><use xlink:href="#10" y="19.539"/><use xlink:href="#11" y="21.71"/><use xlink:href="#12" y="23.881"/><use xlink:href="#13" y="26.052"/><use xlink:href="#14" y="28.223"/><use xlink:href="#15" y="30.394"/><use xlink:href="#16" y="32.565"/><use xlink:href="#17" y="34.736"/><use xlink:href="#18" y="36.907"/><use xlink:href="#19" y="39.078"/><use xlink:href="#20" y="41.249"/><use xlink:href="#6" y="43.42"/><use xlink:href="#21" y="45.591"/><use xlink:href="#22" y="47.762"/><use xlink:href="#23" y="49.933"/><text y="53.774" class="c">---</text></svg></svg></g></g></svg></svg>